<svg width="166" height="26" viewBox="0 0 166 26" fill="none" xmlns="http://www.w3.org/2000/svg">
<path d="M0.730757 24.4976L9.98276 0.233558H12.4308L21.6828 24.4976H17.8668L11.2068 7.00156L4.54676 24.4976H0.730757ZM28.1764 18.9896V19.3136C28.1764 20.1776 29.4724 21.8336 31.8844 21.8336C34.4764 21.8336 35.5924 20.3576 35.5924 19.3136C35.5924 18.0536 30.5164 17.6576 29.5444 17.4416C27.1324 16.9376 24.8284 15.7496 24.8284 12.7976C24.8284 9.08956 28.4284 6.96556 31.8844 6.96556C35.1244 6.96556 38.9404 9.44956 38.9404 12.7976V13.1576H35.5924V12.7976C35.5924 12.0056 34.1164 10.3136 31.8844 10.3136C29.4004 10.3136 28.1764 11.7176 28.1764 12.7976C28.1764 14.3456 33.1084 14.6336 34.1884 14.8496C36.5644 15.3536 38.9404 16.4336 38.9404 19.3136C38.9404 22.9136 35.5204 25.1816 31.8844 25.1816C28.3564 25.1816 24.8284 22.6616 24.8284 19.3136V18.9896H28.1764ZM50.5658 10.8176H45.4538V17.6936C45.4538 19.6376 47.0018 21.1856 48.9458 21.1856H50.5658V24.5336H48.9458C45.1658 24.5336 42.1058 21.4736 42.1058 17.6936V3.07756H45.4538V7.46956H50.5658V10.8176ZM53.7229 24.5696V14.9216C53.7229 10.8176 57.0349 7.46956 61.1749 7.46956H64.5949V10.8176H61.1749C58.9069 10.8176 57.0709 12.6536 57.0709 14.9216V24.5696H53.7229ZM79.6889 16.0016C79.6889 13.1216 77.3849 10.8176 74.5049 10.8176C71.6249 10.8176 69.3209 13.1216 69.3209 16.0016C69.3209 18.8816 71.6249 21.1856 74.5049 21.1856C77.3849 21.1856 79.6889 18.8816 79.6889 16.0016ZM83.0369 16.0016C83.0369 20.7176 79.2209 24.5336 74.5049 24.5336C69.7889 24.5336 65.9729 20.7176 65.9729 16.0016C65.9729 11.2856 69.7889 7.46956 74.5049 7.46956C79.2209 7.46956 83.0369 11.2856 83.0369 16.0016ZM106.039 3.79756H98.3354C93.5834 3.79756 89.7674 7.61356 89.7674 12.3656C89.7674 17.0816 93.5834 20.9336 98.3354 20.9336H102.619V10.5296H106.183V24.4976H98.3354C91.6394 24.4976 86.2034 19.0616 86.2034 12.3656C86.2034 5.66956 91.6394 0.233558 98.3354 0.233558H106.039V3.79756ZM112.7 3.00556V17.6216C112.7 19.5656 114.248 21.1496 116.192 21.1496H117.812V24.4976H116.192C112.412 24.4976 109.352 21.4016 109.352 17.6216V3.00556H112.7ZM132.892 16.0016C132.892 13.1216 130.588 10.8176 127.708 10.8176C124.828 10.8176 122.524 13.1216 122.524 16.0016C122.524 18.8816 124.828 21.1856 127.708 21.1856C130.588 21.1856 132.892 18.8816 132.892 16.0016ZM136.24 16.0016C136.24 20.7176 132.424 24.5336 127.708 24.5336C122.992 24.5336 119.176 20.7176 119.176 16.0016C119.176 11.2856 122.992 7.46956 127.708 7.46956C132.424 7.46956 136.24 11.2856 136.24 16.0016ZM165.838 7.39756L159.214 24.5696H155.146L151.726 12.8336L148.342 24.5696H144.274L137.614 7.39756H141.178L146.146 20.1416L149.818 7.39756H153.634L157.342 20.1416L162.274 7.39756H165.838Z" fill="black"/>
</svg>
