<svg width="185" height="46" viewBox="0 0 185 46" fill="none" xmlns="http://www.w3.org/2000/svg">
<g clip-path="url(#clip0_7_1736)">
<g clip-path="url(#clip1_7_1736)">
<path fill-rule="evenodd" clip-rule="evenodd" d="M25.0674 30.5955C25.7587 27.5725 27.3208 20.4815 27.998 17.4023C28.0296 17.2586 28.0218 17.1092 27.9753 16.9696C27.9289 16.8301 27.8456 16.7057 27.7343 16.6097C27.623 16.5136 27.4877 16.4495 27.3429 16.424C27.1981 16.3985 27.0491 16.4126 26.9116 16.4649L10.4723 22.6655C10.3364 22.7168 10.2199 22.8094 10.1392 22.9302C10.0585 23.0511 10.0177 23.1942 10.0225 23.3394C10.0272 23.4847 10.0773 23.6248 10.1657 23.7401C10.2541 23.8554 10.3764 23.9402 10.5154 23.9825L14.7579 25.2713L24.4365 19.0286C24.692 18.8645 24.939 19.1457 24.7285 19.3426L17.0258 26.3024L23.5756 31.1485C23.7027 31.2421 23.851 31.3025 24.0072 31.3245C24.1635 31.3465 24.3227 31.3293 24.4707 31.2744C24.6186 31.2196 24.7506 31.1288 24.8547 31.0103C24.9589 30.8918 25.032 30.7493 25.0674 30.5955Z" fill="white" fill-opacity="0.5"/>
</g>
</g>
<g clip-path="url(#clip2_7_1736)">
<g clip-path="url(#clip3_7_1736)">
<path fill-rule="evenodd" clip-rule="evenodd" d="M71.7807 26.5635C71.7811 27.0586 71.5849 27.5336 71.2352 27.884C70.8855 28.2345 70.411 28.4318 69.9159 28.4324C68.9363 28.4323 67.9664 28.2392 67.0614 27.8642C66.1565 27.4892 65.3343 26.9396 64.6418 26.2469C63.9492 25.5541 63.3999 24.7317 63.0252 23.8266C62.6505 22.9216 62.4578 21.9516 62.458 20.972C62.4578 20.7271 62.5059 20.4846 62.5995 20.2584C62.6931 20.0321 62.8305 19.8266 63.0036 19.6534C63.1768 19.4803 63.3824 19.3431 63.6087 19.2495C63.835 19.1559 64.0775 19.1079 64.3223 19.1082C64.4258 19.1089 64.5291 19.1174 64.6313 19.1337C64.7377 19.1504 64.8423 19.1778 64.9433 19.2154L65.6403 22.2895L64.6328 22.8103C64.9114 23.6067 65.3658 24.3302 65.9624 24.9269C66.5589 25.5236 67.2822 25.9783 68.0786 26.2571V26.252L68.5969 25.246L71.6735 25.9456C71.7106 26.0465 71.7377 26.1509 71.7542 26.2571C71.7714 26.3583 71.7803 26.4608 71.7807 26.5635ZM58.0195 32.8699L59.3921 28.1822C58.3251 26.3124 57.9729 24.119 58.4009 22.0092C58.8289 19.8993 60.008 18.0165 61.7193 16.7103C63.4306 15.4042 65.5577 14.7634 67.7057 14.907C69.8537 15.0506 71.8766 15.9689 73.3987 17.4913C74.9209 19.0137 75.8388 21.0367 75.9821 23.1847C76.1254 25.3328 75.4843 27.4598 74.1779 29.1709C72.8715 30.8819 70.9885 32.0608 68.8786 32.4884C66.7687 32.9161 64.5753 32.5636 62.7057 31.4963L58.0195 32.8699ZM62.8195 30.5771L62.9783 30.6741C64.6631 31.6839 66.6589 32.0428 68.5899 31.6833C70.5209 31.3238 72.2538 30.2706 73.4623 28.7222C74.6708 27.1738 75.2714 25.2369 75.1511 23.2764C75.0308 21.316 74.1978 19.4671 72.8091 18.0781C71.4203 16.6891 69.5716 15.8558 67.6111 15.7351C65.6506 15.6144 63.7137 16.2147 62.1651 17.4229C60.6164 18.631 59.563 20.3638 59.2031 22.2947C58.8432 24.2256 59.2018 26.2215 60.2112 27.9065L60.3067 28.0648L59.2665 31.6188L62.8195 30.5771Z" fill="white" fill-opacity="0.5"/>
</g>
</g>
<g clip-path="url(#clip4_7_1736)">
<g clip-path="url(#clip5_7_1736)">
<path fill-rule="evenodd" clip-rule="evenodd" d="M120.429 24.4927L120.876 23.8225L121.323 23.1448L121.771 22.4672L122.218 21.7969L122.665 21.1193L123.112 20.4417L123.56 19.7714L124.007 19.0938H118.519L118.506 19.1453L118.494 19.1895L118.481 19.2411L118.468 19.2926L118.455 19.3442L118.442 19.3884L118.43 19.4399L118.417 19.4915C118.384 19.6167 118.347 19.7493 118.307 19.8892C118.268 20.0292 118.223 20.1691 118.174 20.3091C118.126 20.449 118.073 20.589 118.016 20.7363C117.96 20.8836 117.898 21.0235 117.832 21.1708C117.766 21.3182 117.697 21.4507 117.621 21.5907C117.548 21.7274 117.467 21.8602 117.38 21.9884C117.294 22.1136 117.203 22.2389 117.107 22.3567C117.013 22.471 116.911 22.5793 116.802 22.6808C116.789 22.6882 116.776 22.7029 116.763 22.7102C116.752 22.7242 116.739 22.7366 116.724 22.7471C116.713 22.7589 116.7 22.7689 116.686 22.7765C116.674 22.7913 116.66 22.7986 116.649 22.8134C116.634 22.8208 116.622 22.8308 116.611 22.8428L116.575 22.8649C116.565 22.8767 116.552 22.8867 116.539 22.8944L116.504 22.9165V19.0938H111.724V20.147H112.171V22.5408C112.098 22.4823 112.029 22.4183 111.965 22.3493C111.81 22.1847 111.669 22.0073 111.543 21.819C111.471 21.7098 111.404 21.5967 111.343 21.4802C111.275 21.3534 111.214 21.2231 111.16 21.0898C111.102 20.9499 111.049 20.8026 111.001 20.6405C110.949 20.4735 110.907 20.3038 110.874 20.1323C110.837 19.9555 110.808 19.764 110.786 19.5651L110.779 19.5062L110.772 19.4473L110.766 19.3884L110.76 19.3294L110.753 19.2705L110.747 19.2116L110.741 19.1527L110.734 19.0938H106.02L106.04 19.1748L106.061 19.2558L106.08 19.3368L106.101 19.4178L106.121 19.4989L106.142 19.5872L106.161 19.6683L106.182 19.7493C106.254 20.0439 106.331 20.3312 106.413 20.6111C106.496 20.891 106.582 21.1635 106.673 21.436C106.93 22.197 107.243 22.938 107.609 23.653C107.727 23.8814 107.847 24.095 107.973 24.3086C108.099 24.5222 108.228 24.7211 108.362 24.9126C108.496 25.1041 108.635 25.3029 108.777 25.4797C108.893 25.627 109.013 25.7743 109.135 25.9143C109.257 26.0542 109.381 26.1794 109.508 26.312C109.636 26.4446 109.765 26.5624 109.898 26.6803C110.031 26.7981 110.165 26.9086 110.303 27.0191C110.441 27.1296 110.581 27.2327 110.724 27.3285C110.867 27.4242 111.011 27.52 111.159 27.601C111.307 27.682 111.454 27.7704 111.608 27.8514C111.763 27.9324 111.915 27.9987 112.072 28.065C112.212 28.1239 112.351 28.1755 112.488 28.2271C112.625 28.2786 112.76 28.3155 112.894 28.3596C113.027 28.4038 113.157 28.4333 113.285 28.4628C113.414 28.4922 113.54 28.5143 113.663 28.5364C113.786 28.5585 113.905 28.5806 114.022 28.5953C114.139 28.6101 114.251 28.6174 114.361 28.6322C114.471 28.6469 114.576 28.6469 114.677 28.6469C114.778 28.6469 114.876 28.6543 114.971 28.6543H115.216C115.293 28.6469 115.363 28.6469 115.437 28.6395C115.511 28.6322 115.571 28.6322 115.631 28.6248L115.795 28.6027C115.839 28.5948 115.884 28.5898 115.929 28.588C115.969 28.5806 116.003 28.5732 116.031 28.5659C116.06 28.5585 116.082 28.5585 116.099 28.5585C116.109 28.5536 116.12 28.5511 116.131 28.5512L116.182 28.5364L116.232 28.5217L116.282 28.5143L116.333 28.4996L116.383 28.4922L116.433 28.4775L116.484 28.4628L116.534 28.4554V27.0044L116.755 27.1959L116.98 27.3948L117.201 27.5863L117.422 27.7851L117.643 27.9766L117.864 28.1755L118.085 28.367L118.306 28.5585H123.977L123.529 28.0503L123.079 27.5421L122.631 27.0338L122.182 26.5256L121.734 26.0174L121.285 25.5092L120.837 25.0009L120.429 24.4927Z" fill="white" fill-opacity="0.5"/>
</g>
</g>
<g clip-path="url(#clip6_7_1736)">
<g clip-path="url(#clip7_7_1736)">
<path fill-rule="evenodd" clip-rule="evenodd" d="M168.029 25.0526C167.941 24.9012 167.823 24.7692 167.683 24.6646C167.542 24.5599 167.382 24.4848 167.212 24.4437C167.042 24.4026 166.865 24.3963 166.692 24.4254C166.519 24.4544 166.354 24.5181 166.207 24.6126C164.063 25.8659 161.935 25.8437 159.794 24.6014C159.646 24.5084 159.48 24.4467 159.307 24.42C159.134 24.3934 158.958 24.4024 158.788 24.4466C158.619 24.4907 158.46 24.569 158.322 24.6766C158.184 24.7843 158.07 24.919 157.986 25.0726C157.896 25.2105 157.836 25.3654 157.81 25.5276C157.783 25.6897 157.791 25.8556 157.831 26.0148C157.872 26.1741 157.945 26.3232 158.046 26.4528C158.147 26.5824 158.274 26.6898 158.418 26.7681C159.254 27.2414 160.149 27.6148 161.107 28.0703C160.944 28.2503 160.798 28.4214 160.638 28.5814C159.939 29.2837 159.22 29.9681 158.54 30.6859C158.389 30.8342 158.278 31.0177 158.216 31.2197C158.154 31.4218 158.144 31.636 158.185 31.8432C158.227 32.0504 158.319 32.2441 158.454 32.4067C158.589 32.5693 158.762 32.6958 158.958 32.7748C159.227 32.8783 159.521 32.8961 159.801 32.8256C160.08 32.7552 160.331 32.6 160.518 32.3814C161.329 31.5592 162.14 30.7348 162.963 29.8992C163.126 30.0281 163.23 30.097 163.316 30.1814C164.065 30.9237 164.805 31.6726 165.559 32.4081C166.141 32.977 166.981 33.0081 167.488 32.5014C168.031 31.9592 168.007 31.2148 167.416 30.6014C167.05 30.2214 166.67 29.857 166.297 29.4837L164.889 28.0726C165.833 27.6326 166.711 27.277 167.533 26.8237C168.272 26.4148 168.426 25.7037 168.029 25.0526ZM163.029 24.0437C165.52 24.1703 167.67 21.9837 167.624 19.4703C167.576 16.9037 165.589 14.8459 163.006 14.8703C161.784 14.8782 160.615 15.3684 159.754 16.2342C158.892 17.0999 158.408 18.2711 158.406 19.4926C158.393 21.8459 160.426 24.1903 163.028 24.0437H163.029ZM163.007 17.4414C163.538 17.4568 164.043 17.6737 164.419 18.0481C164.796 18.4225 165.016 18.9263 165.034 19.457C165.033 19.8539 164.915 20.2416 164.694 20.5714C164.473 20.9012 164.16 21.1583 163.793 21.3103C163.427 21.4623 163.023 21.5024 162.634 21.4256C162.245 21.3488 161.887 21.1585 161.605 20.8786C161.324 20.5988 161.131 20.2419 161.052 19.853C160.973 19.4641 161.011 19.0604 161.161 18.6929C161.311 18.3254 161.566 18.0105 161.895 17.7878C162.223 17.5651 162.61 17.4446 163.007 17.4414Z" fill="white" fill-opacity="0.5"/>
</g>
</g>
<defs>
<clipPath id="clip0_7_1736">
<rect width="18" height="18" fill="white" transform="translate(10.02 14.8701)"/>
</clipPath>
<clipPath id="clip1_7_1736">
<rect width="18" height="18" fill="white" transform="translate(10.02 14.8701)"/>
</clipPath>
<clipPath id="clip2_7_1736">
<rect width="18" height="18" fill="white" transform="translate(58.02 14.8701)"/>
</clipPath>
<clipPath id="clip3_7_1736">
<rect width="18" height="18" fill="white" transform="translate(58.02 14.8701)"/>
</clipPath>
<clipPath id="clip4_7_1736">
<rect width="18" height="18" fill="white" transform="translate(106.02 14.8701)"/>
</clipPath>
<clipPath id="clip5_7_1736">
<rect width="18" height="18" fill="white" transform="translate(106.02 14.8701)"/>
</clipPath>
<clipPath id="clip6_7_1736">
<rect width="18" height="18" fill="white" transform="translate(154.02 14.8701)"/>
</clipPath>
<clipPath id="clip7_7_1736">
<rect width="18" height="18" fill="white" transform="translate(154.02 14.8701)"/>
</clipPath>
</defs>
</svg>
