<?xml version="1.0" standalone="no"?>
<!DOCTYPE svg PUBLIC "-//W3C//DTD SVG 20010904//EN"
 "http://www.w3.org/TR/2001/REC-SVG-20010904/DTD/svg10.dtd">
<svg version="1.0" xmlns="http://www.w3.org/2000/svg"
 width="1140.000000pt" height="648.000000pt" viewBox="0 0 1140.000000 648.000000"
 preserveAspectRatio="xMidYMid meet">

<g transform="translate(0.000000,648.000000) scale(0.100000,-0.100000)"
fill="#000000" stroke="none">
<path d="M4311 6477 c2 -2 27 -18 54 -36 l50 -33 -37 36 c-21 20 -45 36 -55
36 -9 0 -14 -2 -12 -3z"/>
<path d="M6019 6461 c12 -21 61 -56 61 -42 0 5 23 21 52 35 l52 26 -87 0 c-82
0 -87 -1 -78 -19z"/>
<path d="M7565 6470 c-11 -5 -67 -23 -125 -40 -58 -18 -298 -97 -535 -175
-236 -78 -457 -150 -490 -160 -33 -9 -87 -26 -119 -36 -33 -10 -68 -19 -77
-19 -24 0 -28 -8 -33 -73 -6 -74 26 -203 59 -236 l24 -24 48 17 c26 10 57 21
68 26 11 4 88 29 170 55 83 27 236 76 340 111 105 34 330 108 500 163 171 56
398 130 505 165 107 35 260 85 340 111 149 48 263 95 275 114 8 13 -919 14
-950 1z"/>
<path d="M10344 6438 c30 -62 29 -176 -3 -238 -13 -25 -29 -52 -36 -60 -8 -8
-25 -37 -40 -65 -14 -27 -38 -70 -54 -95 -24 -40 -58 -173 -76 -295 -40 -283
-96 -592 -110 -615 -3 -4 -14 -52 -25 -106 -10 -55 -29 -142 -40 -194 -37
-167 -41 -210 -46 -473 -4 -237 -2 -265 17 -340 11 -45 25 -86 30 -91 5 -6 9
-17 9 -25 0 -9 6 -28 14 -42 7 -14 16 -47 20 -73 5 -30 12 -46 22 -46 8 0 14
-4 14 -9 0 -14 33 -23 40 -11 8 13 38 16 63 5 11 -5 17 -3 17 6 0 7 7 3 16 -9
13 -18 19 -21 30 -11 11 9 21 9 43 -1 20 -8 35 -9 47 -2 18 10 94 -3 104 -17
3 -5 22 -11 43 -15 22 -4 37 -13 37 -21 0 -10 10 -15 27 -15 38 0 133 -23 133
-32 0 -5 9 -8 19 -8 11 0 35 -18 54 -40 19 -22 38 -40 43 -40 5 0 25 -15 44
-33 19 -18 71 -60 115 -92 70 -52 135 -104 186 -151 9 -7 19 -14 22 -14 4 0
38 -22 76 -49 38 -27 84 -57 102 -67 19 -9 36 -20 39 -24 3 -4 17 -10 33 -14
l27 -6 0 1735 0 1735 -539 0 -538 0 21 -42z m-77 -2764 c-3 -3 -12 -4 -19 -1
-8 3 -5 6 6 6 11 1 17 -2 13 -5z"/>
<path d="M3179 6316 c-10 -22 -10 -29 2 -40 14 -14 188 -66 414 -126 298 -78
553 -158 855 -268 91 -33 173 -63 182 -67 13 -5 22 3 37 34 36 69 34 72 -92
110 -61 18 -159 51 -217 72 -58 20 -136 43 -175 49 -102 16 -314 68 -439 106
-60 19 -114 34 -121 34 -9 0 -336 91 -417 117 -12 4 -21 -3 -29 -21z"/>
<path d="M4670 6226 c0 -8 15 -27 34 -43 21 -19 36 -43 40 -66 6 -31 3 -38
-21 -56 -45 -33 -53 -41 -53 -51 0 -4 52 -47 115 -95 63 -47 127 -103 142
-123 73 -100 128 -142 186 -142 95 0 267 193 267 301 0 29 -5 39 -20 44 -11 3
-20 10 -20 15 0 15 -69 52 -93 48 -21 -2 -117 39 -237 102 -25 12 -48 16 -78
13 -38 -4 -42 -3 -42 18 l0 22 -23 -21 c-30 -28 -49 -28 -84 1 -25 21 -83 47
-104 47 -5 0 -9 -6 -9 -14z"/>
<path d="M2850 6199 c0 -18 2 -19 15 -9 8 7 15 16 15 21 0 5 -7 9 -15 9 -9 0
-15 -9 -15 -21z"/>
<path d="M2843 6125 c-10 -22 -8 -27 15 -45 17 -14 37 -20 61 -18 60 5 50 44
-14 51 -24 2 -41 10 -44 20 -5 13 -8 11 -18 -8z"/>
<path d="M4978 5545 l-28 -24 33 -24 c34 -26 71 -47 82 -47 3 0 4 10 0 23 -29
108 -38 116 -87 72z"/>
<path d="M5217 5271 l-28 -6 61 -58 c33 -32 60 -54 60 -48 0 6 21 10 48 9 35
-2 56 4 84 23 43 28 43 40 3 50 -33 9 -150 23 -182 22 -13 -1 -20 3 -17 8 3 5
4 8 2 8 -2 -1 -16 -4 -31 -8z"/>
<path d="M980 4764 c-24 -28 -2 -99 66 -210 36 -59 78 -123 93 -143 27 -34 40
-59 106 -208 32 -70 76 -125 83 -102 3 8 29 51 59 97 62 93 72 133 53 221 -18
87 -21 89 -74 52 -26 -17 -51 -31 -57 -31 -5 0 -9 27 -9 60 0 33 -4 60 -8 60
-13 0 -32 -72 -32 -120 0 -54 -19 -120 -35 -120 -14 0 -38 54 -94 212 -21 58
-75 173 -102 215 -18 29 -35 35 -49 17z"/>
<path d="M7275 4630 c-66 -13 -138 -44 -201 -87 -78 -53 -91 -68 -68 -81 14
-8 23 -3 45 28 38 52 99 86 211 116 51 14 95 28 97 30 7 6 -39 3 -84 -6z"/>
<path d="M6010 4609 c0 -10 -8 -22 -17 -28 -23 -13 -10 -25 47 -44 25 -8 56
-20 70 -25 123 -51 189 -70 225 -66 36 5 45 1 85 -36 58 -53 214 -170 265
-200 56 -32 35 -15 -70 60 -49 35 -110 82 -133 105 -43 39 -80 95 -65 95 20 1
-34 30 -55 30 -14 0 -36 13 -53 31 -25 27 -66 47 -159 79 -14 5 -51 10 -82 13
-51 3 -58 1 -58 -14z"/>
<path d="M6690 4489 c-14 -4 -46 -7 -72 -8 -55 -1 -77 -25 -58 -61 19 -35 65
-26 118 24 50 47 52 57 12 45z"/>
<path d="M6430 4355 c7 -9 15 -13 17 -11 7 7 -7 26 -19 26 -6 0 -6 -6 2 -15z"/>
<path d="M8506 4243 c4 -10 8 -79 8 -153 1 -114 5 -145 24 -202 34 -98 41 -93
61 42 5 36 17 107 26 157 19 109 14 125 -48 154 -55 24 -82 25 -71 2z"/>
<path d="M7220 4224 c0 -12 11 -26 35 -44 15 -11 14 -7 -5 15 -14 17 -26 32
-27 34 -2 2 -3 0 -3 -5z"/>
<path d="M6740 4179 c25 -17 89 -49 97 -49 4 0 -16 14 -46 30 -53 29 -81 40
-51 19z"/>
<path d="M7230 4153 c0 -44 -55 -146 -100 -187 -58 -52 -115 -78 -184 -82 -41
-2 -51 -1 -31 4 28 7 29 9 10 19 -11 5 -39 13 -63 16 -48 6 -47 5 7 -57 l26
-29 -29 19 c-16 10 -34 19 -40 20 -6 0 -21 2 -34 2 -13 1 -20 7 -17 12 3 6 1
10 -4 10 -6 0 -11 21 -11 48 -1 61 -12 42 -39 -68 -45 -184 -54 -308 -48 -690
6 -380 28 -645 67 -810 23 -98 33 -157 55 -325 9 -66 31 -187 50 -270 18 -82
46 -206 60 -275 15 -69 53 -210 85 -315 32 -104 66 -217 75 -249 31 -110 150
-375 175 -391 26 -16 70 -13 94 6 l26 20 -69 69 c-102 103 -102 143 -4 180
116 43 128 71 41 90 -42 8 -60 8 -99 -5 -59 -20 -82 -10 -99 39 -24 74 20 98
132 71 133 -33 242 -101 243 -153 0 -21 8 -27 60 -43 32 -10 74 -26 92 -36 30
-16 33 -21 27 -53 -10 -56 -39 -113 -75 -146 -65 -59 -186 -115 -250 -116 -35
0 -37 -2 -27 -23 11 -25 19 -29 123 -73 100 -43 314 -139 355 -161 19 -10 65
-34 101 -54 92 -52 171 -77 215 -70 36 6 36 6 30 44 -6 35 -15 56 -58 129 -21
37 -129 148 -173 180 -52 37 -122 100 -111 100 5 0 3 7 -4 15 -7 8 -10 22 -6
30 3 8 0 15 -6 15 -9 0 -9 3 0 12 6 6 39 13 72 14 32 1 64 5 70 9 5 3 38 3 72
0 59 -6 62 -5 43 10 -11 9 -19 21 -18 26 3 9 -2 11 -29 13 -7 1 -20 8 -29 17
-8 8 -53 30 -100 49 -46 19 -90 40 -97 47 -7 7 -20 13 -27 13 -19 0 -49 57
-35 65 18 11 10 25 -15 25 -14 0 -25 5 -25 11 0 5 -4 7 -10 4 -17 -11 -32 5
-19 21 6 8 7 14 2 14 -5 0 -15 11 -21 25 -13 29 -32 33 -33 8 0 -10 -5 -4 -10
12 -5 19 -5 31 1 33 16 6 -32 39 -67 46 -30 7 -67 36 -46 36 6 0 13 19 17 41
7 41 7 41 43 36 l36 -6 -22 20 c-23 21 -27 44 -11 54 8 5 7 11 -1 21 -10 12
-8 18 7 29 24 18 36 18 53 3 12 -11 13 -9 7 7 -4 11 -8 25 -9 30 -1 6 -6 14
-12 18 -6 5 -5 7 3 5 8 -2 12 -6 10 -9 -6 -11 32 -40 43 -33 9 5 7 11 -5 20
-12 8 -14 14 -5 19 6 4 15 1 20 -6 8 -12 11 -12 19 1 9 13 10 13 11 0 0 -9 5
-5 12 9 9 19 9 25 -1 29 -6 2 -12 9 -12 15 0 8 4 7 12 -1 7 -7 20 -12 30 -12
10 0 18 -4 18 -10 0 -5 5 -10 11 -10 6 0 8 9 4 20 -4 11 -3 20 2 19 4 -1 22
-1 38 0 23 1 27 4 15 11 -13 8 -13 12 3 27 14 15 19 15 26 4 6 -9 9 -6 9 12 0
17 -5 24 -13 21 -7 -3 -16 -1 -20 5 -3 6 -1 11 5 11 6 0 10 8 8 17 -2 10 -8
18 -13 18 -6 0 -16 4 -22 8 -7 5 -17 5 -23 2 -5 -3 -10 1 -10 10 0 9 4 14 9
10 5 -3 12 -1 15 4 3 5 -1 12 -10 15 -22 9 -24 8 -24 -9 0 -8 -5 -15 -11 -15
-6 0 -9 7 -6 14 4 10 1 13 -9 9 -9 -3 -14 1 -14 13 0 16 -2 17 -10 4 -8 -13
-11 -13 -19 -1 -7 11 -11 10 -20 -5 -6 -11 -11 -14 -11 -7 0 7 -7 10 -16 6 -8
-3 -25 4 -37 15 -14 13 -32 20 -49 18 -16 -2 -28 2 -28 8 0 6 -4 5 -9 -3 -5
-8 -16 -11 -30 -6 -12 4 -28 2 -36 -5 -9 -7 -15 -8 -20 0 -9 15 -35 12 -35 -5
0 -9 -6 -12 -15 -9 -8 4 -15 14 -15 24 0 14 -6 18 -23 14 -17 -3 -27 2 -34 19
-8 17 -20 23 -54 25 -24 1 -47 8 -51 15 -5 7 -6 0 -2 -15 4 -17 2 -28 -4 -28
-23 0 -62 24 -67 42 -5 13 -16 18 -41 18 -20 0 -42 7 -50 15 -9 8 -19 15 -24
15 -5 0 -7 -7 -4 -15 10 -26 -5 -16 -20 14 -10 19 -12 31 -5 38 7 7 3 12 -14
16 -26 7 -47 44 -47 83 0 14 -15 44 -35 68 -19 24 -35 47 -35 51 0 5 6 0 14
-10 13 -18 14 -18 9 7 -3 14 -14 36 -25 48 -22 23 -40 75 -58 165 -6 33 -16
68 -21 78 -5 9 -19 83 -30 163 -16 114 -18 148 -9 154 9 5 9 9 1 11 -7 3 -13
47 -16 117 -3 62 -6 116 -6 120 -5 32 3 82 12 76 8 -5 8 -1 0 14 -14 26 -14
35 -1 27 7 -4 9 2 4 19 -5 21 -2 26 12 27 18 0 18 1 0 8 -14 5 -16 10 -8 15 7
4 10 12 7 17 -4 5 -1 9 4 9 6 0 11 -4 11 -10 0 -5 8 -2 18 8 24 22 20 29 -17
27 -17 -1 -28 2 -25 7 3 5 13 6 23 3 11 -3 22 4 34 24 21 36 21 42 2 35 -17
-7 -19 8 -6 34 27 50 44 100 43 120 -1 12 3 22 9 22 5 0 9 6 8 13 -3 26 2 36
22 42 12 4 18 12 15 21 -3 8 1 14 8 14 19 0 29 32 14 42 -11 6 -10 8 0 8 16 0
42 25 42 40 0 6 5 8 12 4 7 -5 9 -2 5 9 -4 11 -2 14 9 10 9 -3 14 2 14 16 0
20 9 25 39 22 7 -2 10 2 6 8 -3 6 4 15 17 20 29 11 77 61 58 61 -9 0 -7 6 6
19 13 13 23 15 32 9 8 -8 12 -6 12 4 0 10 13 14 48 14 54 1 134 40 142 70 3
11 13 31 23 45 17 25 14 65 -4 53 -5 -3 -9 7 -9 21 0 16 -12 38 -29 55 -29 29
-47 70 -30 70 5 0 9 10 8 23 0 17 -4 14 -17 -15 -16 -37 -41 -55 -27 -20 15
39 12 106 -7 126 -18 20 -18 19 -18 -11z m20 -28 c0 -8 -4 -15 -10 -15 -5 0
-7 7 -4 15 4 8 8 15 10 15 2 0 4 -7 4 -15z m-37 -90 c-3 -9 -8 -14 -10 -11 -3
3 -2 9 2 15 9 16 15 13 8 -4z m31 -41 c4 -10 2 -13 -6 -8 -7 5 -9 2 -5 -9 6
-15 -18 -45 -29 -35 -4 4 26 68 32 68 1 0 5 -7 8 -16z m-94 -49 c-7 -8 -17
-15 -22 -15 -6 0 -5 7 2 15 7 8 17 15 22 15 6 0 5 -7 -2 -15z m30 -45 c-28
-22 -40 -25 -40 -10 0 6 7 10 15 10 8 0 15 5 15 10 0 6 8 10 18 10 14 0 12 -4
-8 -20z m70 0 c0 -5 -4 -10 -10 -10 -5 0 -10 5 -10 10 0 6 5 10 10 10 6 0 10
-4 10 -10z m-477 -655 c-3 -8 -9 -15 -14 -15 -10 0 -12 24 -3 33 11 11 24 -3
17 -18z m-13 -35 c0 -5 -5 -10 -11 -10 -5 0 -7 5 -4 10 3 6 8 10 11 10 2 0 4
-4 4 -10z m10 -40 c0 -14 -18 -21 -25 -10 -4 6 -12 7 -18 3 -7 -4 -7 -1 1 9
13 16 42 14 42 -2z m490 -1490 c8 -5 11 -10 5 -10 -5 0 -17 5 -25 10 -8 5 -10
10 -5 10 6 0 17 -5 25 -10z m410 -270 c0 -5 -5 -10 -11 -10 -5 0 -7 5 -4 10 3
6 8 10 11 10 2 0 4 -4 4 -10z m-153 -172 c-3 -8 -6 -5 -6 6 -1 11 2 17 5 13 3
-3 4 -12 1 -19z m40 -199 c-14 -8 -22 -8 -30 0 -8 8 -3 11 19 11 25 -1 27 -2
11 -11z"/>
<path d="M6130 3996 c0 -2 9 -6 20 -9 11 -3 20 -1 20 4 0 5 -9 9 -20 9 -11 0
-20 -2 -20 -4z"/>
<path d="M7367 3951 c-3 -11 1 -25 9 -32 11 -9 14 -8 14 7 0 11 -4 25 -9 32
-6 11 -9 9 -14 -7z"/>
<path d="M9151 3727 c-24 -15 -36 -17 -39 -9 -4 13 -37 15 -95 6 -29 -5 -42
-14 -58 -43 -18 -31 -55 -66 -159 -150 -32 -26 -20 -35 68 -52 59 -11 67 -10
107 10 32 16 45 29 50 50 7 32 45 71 92 95 34 17 93 83 93 103 0 18 -19 15
-59 -10z"/>
<path d="M8147 3551 c5 -13 3 -14 -8 -3 -18 16 -30 15 -23 -2 4 -11 0 -13 -15
-9 -12 3 -21 1 -21 -5 0 -6 -16 -16 -34 -23 -19 -7 -33 -16 -30 -21 3 -4 -2
-8 -11 -8 -9 0 -28 -13 -44 -29 -16 -16 -39 -35 -53 -42 -39 -23 -117 -83
-118 -93 0 -11 -52 -52 -62 -49 -4 2 -15 -11 -24 -29 -12 -24 -18 -28 -25 -17
-6 10 -9 10 -9 2 0 -18 -39 -55 -50 -48 -5 3 -21 -10 -36 -30 -14 -19 -33 -35
-40 -35 -8 0 -14 -4 -14 -8 0 -5 -7 -17 -16 -28 -14 -18 -15 -18 -8 6 l6 25
-25 -24 c-14 -13 -35 -43 -47 -67 -11 -24 -24 -44 -28 -44 -13 0 -101 -191
-123 -268 -43 -146 -51 -179 -54 -242 l-3 -65 20 45 c20 44 116 210 127 220 3
3 13 18 21 34 20 40 255 276 274 276 6 0 73 52 174 133 26 20 63 48 82 61 19
13 46 35 60 48 14 13 54 43 89 67 81 55 165 136 156 150 -3 6 -1 11 4 11 6 0
11 14 11 31 0 30 -19 59 -39 59 -5 0 -14 8 -19 17 -13 22 -52 26 -45 4z"/>
<path d="M1555 3480 c-3 -11 -4 -28 -1 -37 3 -10 7 -31 10 -47 7 -39 27 -59
126 -126 103 -69 110 -77 150 -162 30 -64 55 -96 65 -86 13 13 3 143 -13 175
-12 22 -18 95 -9 109 4 6 -27 26 -75 49 -44 21 -93 48 -107 60 -42 35 -119 85
-130 85 -5 0 -13 -9 -16 -20z"/>
<path d="M6850 3349 c0 -5 5 -7 10 -4 6 3 10 8 10 11 0 2 -4 4 -10 4 -5 0 -10
-5 -10 -11z"/>
<path d="M7730 3279 c0 -5 5 -7 10 -4 6 3 10 8 10 11 0 2 -4 4 -10 4 -5 0 -10
-5 -10 -11z"/>
<path d="M6800 3226 c0 -8 4 -17 9 -20 5 -4 7 3 4 14 -6 23 -13 26 -13 6z"/>
<path d="M8332 2952 c-13 -17 -31 -65 -42 -106 -10 -41 -25 -87 -33 -103 -17
-31 -90 -103 -107 -103 -5 0 -10 -4 -10 -10 0 -5 -6 -10 -13 -10 -8 0 -22 -9
-32 -20 -10 -11 -33 -22 -52 -26 -18 -3 -39 -15 -47 -25 -10 -15 -20 -18 -47
-12 -31 6 -33 5 -20 -11 8 -9 11 -20 7 -24 -4 -4 -12 1 -18 11 -8 15 -55 41
-67 37 -2 -1 -9 9 -15 21 -14 28 -38 38 -30 12 5 -17 5 -17 -6 1 -10 15 -14
16 -21 5 -8 -12 -10 -12 -18 -1 -6 11 -17 5 -46 -23 -29 -30 -36 -43 -33 -66
3 -16 1 -29 -4 -29 -4 0 -8 5 -8 10 0 6 -5 10 -11 10 -8 0 -10 -12 -6 -35 4
-26 2 -37 -11 -45 -12 -7 -13 -9 -3 -10 11 0 10 -5 -5 -21 -12 -13 -14 -19 -5
-17 8 2 17 -9 22 -26 5 -17 15 -34 24 -38 8 -5 15 -15 15 -23 0 -20 89 -12
125 11 33 22 105 35 127 23 10 -6 19 -5 23 1 3 5 11 10 17 10 18 0 -12 -28
-35 -33 -19 -4 -18 -4 4 -6 15 0 38 8 52 19 15 12 27 16 29 9 4 -11 68 20 68
34 0 4 6 7 13 7 15 0 57 41 57 56 0 5 12 17 28 26 15 9 41 28 57 42 17 14 33
26 36 26 3 0 20 20 38 45 18 25 37 42 43 39 6 -4 8 -2 5 3 -4 6 2 18 13 28 11
10 17 21 15 25 -3 4 2 13 10 20 22 18 19 36 -3 19 -10 -8 -5 -2 12 14 33 29
31 32 -8 17 -21 -7 -26 -6 -26 5 0 18 -4 18 -33 4 -22 -10 -22 -10 -2 6 12 10
29 14 44 10 19 -5 22 -3 17 10 -3 9 -2 13 4 10 6 -3 15 6 20 20 14 38 13 39
-16 16 -15 -12 -35 -21 -45 -21 -28 0 -24 36 4 44 28 8 62 34 55 42 -3 3 -15
0 -26 -7 -26 -16 -52 -6 -45 19 6 24 -16 40 -28 21 -18 -30 -17 0 2 35 26 49
20 69 -9 28z m15 -338 c-3 -3 -12 -4 -19 -1 -8 3 -5 6 6 6 11 1 17 -2 13 -5z
m-617 -68 c0 -2 -8 -10 -17 -17 -16 -13 -17 -12 -4 4 13 16 21 21 21 13z"/>
<path d="M4655 2908 c-41 -16 -60 -33 -104 -91 -62 -83 -184 -189 -268 -232
-32 -16 -71 -40 -87 -52 -41 -33 -135 -65 -186 -65 -37 1 -42 -1 -26 -10 10
-5 34 -8 52 -5 l35 6 -28 -30 c-15 -16 -36 -29 -45 -29 -10 0 -18 -4 -18 -8 0
-15 -56 -72 -71 -72 -16 0 -52 -58 -43 -71 3 -5 0 -9 -6 -9 -6 0 -9 -4 -6 -9
8 -12 -19 -33 -29 -23 -5 4 -5 2 -2 -5 4 -6 -10 -28 -30 -50 -21 -21 -46 -50
-56 -65 -9 -16 -24 -28 -32 -28 -8 0 -15 -6 -15 -13 0 -17 -41 -42 -63 -38 -9
1 -24 -5 -33 -13 -19 -20 -38 -20 -54 -1 -7 8 -18 15 -24 15 -6 0 -3 -5 7 -11
18 -11 24 -39 7 -39 -5 0 -10 7 -10 15 0 11 -11 15 -38 15 -33 0 -38 3 -40 25
-1 16 3 25 12 25 8 0 16 6 19 13 2 6 8 8 13 4 5 -4 2 -12 -6 -17 -8 -5 -11
-13 -6 -17 5 -4 11 -2 13 5 3 6 16 12 29 12 27 0 33 17 9 26 -8 4 -12 10 -9
15 7 12 -18 11 -50 -1 -17 -6 -26 -6 -26 0 0 6 7 10 15 10 8 0 15 5 15 10 0 6
-7 13 -15 16 -8 4 -15 13 -15 22 0 13 -2 13 -18 -1 -10 -10 -23 -17 -28 -17
-6 0 -20 -11 -32 -25 -12 -14 -30 -25 -39 -25 -16 0 -16 2 -3 11 20 14 -23 2
-68 -19 -34 -15 -29 -32 11 -32 9 0 17 -5 17 -10 0 -6 -15 -8 -40 -4 -30 5
-40 3 -40 -7 0 -10 -12 -14 -42 -13 -46 2 -58 -7 -58 -43 0 -29 -16 -30 -25
-2 -6 19 -8 19 -19 4 -11 -15 -13 -14 -24 10 -11 25 -15 26 -30 13 -28 -23
-71 -38 -77 -27 -10 15 -27 -2 -22 -22 3 -12 -2 -20 -14 -24 -10 -4 -19 -11
-19 -16 0 -5 -10 -23 -22 -39 -19 -26 -26 -29 -55 -24 -29 5 -34 3 -43 -21 -8
-20 -15 -25 -29 -20 -11 3 -22 1 -26 -5 -3 -5 -17 -10 -29 -10 -15 0 -26 -7
-29 -19 -3 -11 -17 -22 -37 -26 -38 -8 -74 -41 -66 -60 5 -15 -18 -10 -41 8
-8 6 -18 4 -28 -6 -8 -8 -20 -17 -26 -19 -9 -3 -9 -9 0 -25 11 -21 6 -53 -9
-53 -4 0 -10 9 -13 20 -6 24 -29 26 -47 5 -7 -8 -20 -15 -30 -15 -18 0 -44
-65 -33 -83 4 -6 -3 -8 -18 -4 -15 4 -30 0 -41 -10 -14 -12 -23 -13 -47 -5
-44 15 -94 -5 -87 -34 8 -30 -11 -42 -70 -45 -63 -3 -85 16 -114 98 l-21 58 6
-55 c12 -110 99 -357 190 -542 26 -51 56 -115 68 -143 24 -58 60 -117 98 -162
24 -28 28 -30 32 -12 3 11 9 18 14 17 13 -4 93 80 104 109 5 13 26 31 46 41
21 9 47 25 57 34 11 10 24 18 29 18 5 0 21 13 36 30 14 16 46 40 71 52 57 29
84 76 75 130 -5 25 -11 36 -18 31 -7 -4 -6 0 1 10 8 9 11 20 8 25 -2 4 8 19
25 32 16 14 29 31 29 39 0 8 12 28 27 43 21 22 23 28 10 28 -20 0 -23 30 -5
48 9 9 9 12 0 12 -7 0 -12 5 -12 10 0 6 7 10 15 10 8 0 15 -4 15 -10 0 -5 7
-7 15 -3 14 5 14 8 2 22 -8 9 -18 27 -22 41 -4 14 -12 27 -16 31 -5 3 7 5 27
5 19 0 38 5 42 10 5 7 16 6 32 -3 25 -13 25 -13 -12 -13 -32 0 -36 -2 -30 -22
3 -12 7 -17 10 -10 3 9 11 8 32 -3 36 -19 61 -19 54 -1 -4 9 8 15 38 21 33 5
39 9 24 14 -17 7 -18 8 -3 14 9 3 17 15 17 26 0 11 13 34 29 51 18 20 27 39
24 51 -3 10 -1 19 5 19 6 0 12 -8 14 -17 2 -12 6 -14 11 -6 4 6 -1 19 -10 29
-13 12 -14 19 -5 22 6 2 12 13 12 25 0 14 10 27 27 35 39 18 43 15 37 -18 -6
-26 -4 -30 15 -30 12 0 21 -6 21 -16 0 -8 -4 -12 -10 -9 -5 3 -10 -2 -10 -12
-1 -16 -2 -17 -13 -2 -11 14 -16 15 -30 4 -20 -14 -8 -28 16 -19 9 3 25 -4 37
-16 15 -15 25 -18 34 -11 9 7 16 5 26 -9 8 -11 23 -20 33 -20 17 0 17 -1 3
-16 -19 -18 -19 -16 -6 -48 7 -19 5 -29 -6 -41 -10 -10 -14 -24 -10 -40 4 -14
2 -25 -4 -25 -5 0 -10 -12 -10 -26 0 -14 4 -23 10 -19 13 8 26 -25 13 -34 -5
-3 -9 -25 -9 -48 1 -38 3 -42 26 -42 93 0 176 -23 185 -52 7 -21 25 -26 25 -7
0 14 11 4 14 -14 2 -7 7 -21 11 -32 6 -13 2 -23 -13 -35 -25 -18 -35 -68 -13
-63 7 1 19 -2 25 -7 7 -6 37 -13 67 -17 45 -5 70 -1 147 25 51 17 101 31 110
31 27 0 63 38 161 167 50 68 106 138 124 156 74 77 188 137 258 137 48 0 267
-52 334 -79 11 -5 54 -23 95 -41 41 -17 84 -35 95 -40 11 -5 38 -11 59 -14 26
-3 51 -16 72 -37 21 -21 48 -34 79 -40 25 -5 52 -15 60 -22 15 -16 39 -25 145
-57 41 -13 80 -26 85 -31 12 -9 65 0 65 11 0 5 -24 23 -52 40 -177 108 -264
222 -323 425 -40 137 -48 191 -60 420 -8 147 -21 281 -34 346 -29 153 -51 332
-51 416 l0 73 -45 0 c-34 0 -55 7 -85 29 -22 16 -57 32 -77 35 -21 4 -45 9
-53 11 -8 2 -37 -5 -65 -17z m-735 -608 c0 -5 -8 -10 -17 -10 -15 0 -16 2 -3
10 19 12 20 12 20 0z m-493 -225 c1 -5 -8 -15 -20 -21 -22 -10 -23 -8 -19 13
4 24 32 29 39 8z m-137 -25 c-20 -13 -43 -13 -35 0 3 6 16 10 28 10 18 0 19
-2 7 -10z m94 -61 c-8 -14 -24 -10 -24 6 0 9 6 12 15 9 8 -4 12 -10 9 -15z
m-2 -46 c3 -27 5 -28 52 -25 41 2 47 0 37 -12 -8 -10 -9 -16 -1 -21 19 -12
-47 -95 -77 -95 -8 0 -21 -7 -29 -15 -9 -8 -13 -15 -10 -15 3 0 -8 -13 -25
-30 -18 -16 -36 -27 -42 -23 -6 4 -8 0 -4 -10 5 -13 2 -14 -16 -8 -18 7 -22
16 -22 52 0 24 -7 54 -15 67 -13 20 -13 24 0 32 8 5 14 23 13 44 l-1 36 59 0
c56 0 59 1 59 25 0 34 18 32 22 -2z m-122 -3 c0 -5 -4 -10 -10 -10 -5 0 -10 5
-10 10 0 6 5 10 10 10 6 0 10 -4 10 -10z m-255 -20 c3 -5 -1 -10 -10 -10 -9 0
-13 5 -10 10 3 6 8 10 10 10 2 0 7 -4 10 -10z m205 -44 c0 -26 -6 -18 -14 19
-5 22 -4 26 4 15 5 -8 10 -24 10 -34z m5 -157 c-10 -15 -25 -10 -19 6 4 8 10
12 15 9 5 -3 7 -10 4 -15z m15 -39 c10 0 21 -7 24 -16 5 -13 2 -15 -16 -10
-13 3 -26 6 -30 6 -5 0 -8 10 -7 23 0 12 3 16 6 10 2 -7 13 -13 23 -13z m-183
-142 c-3 -8 -6 -5 -6 6 -1 11 2 17 5 13 3 -3 4 -12 1 -19z m273 -138 c0 -5 -4
-10 -10 -10 -5 0 -10 5 -10 10 0 6 5 10 10 10 6 0 10 -4 10 -10z m-1270 -41
c0 -24 -23 -21 -28 4 -2 10 3 17 12 17 10 0 16 -9 16 -21z m90 6 c0 -8 -4 -15
-9 -15 -13 0 -22 16 -14 24 11 11 23 6 23 -9z"/>
<path d="M3270 1894 c-8 -9 -10 -18 -4 -24 6 -6 14 -2 22 10 14 23 -1 36 -18
14z"/>
<path d="M9353 2888 c-34 -35 -89 -136 -79 -145 3 -3 12 -1 20 6 11 9 15 9 19
-1 3 -9 7 -6 12 7 13 39 22 50 55 66 34 16 59 51 60 82 0 30 -52 21 -87 -15z"/>
<path d="M8382 2890 c0 -14 2 -19 5 -12 2 6 2 18 0 25 -3 6 -5 1 -5 -13z"/>
<path d="M2030 2762 c0 -4 5 -13 10 -18 15 -15 23 -64 10 -64 -5 0 -10 -4 -10
-8 0 -12 38 -8 51 5 11 11 0 38 -30 76 -15 18 -31 23 -31 9z"/>
<path d="M3410 2735 c0 -2 10 -19 23 -38 12 -19 33 -53 47 -76 35 -59 91 -120
115 -125 11 -2 31 -8 45 -14 14 -5 54 -9 90 -10 l65 0 -73 17 c-40 10 -89 30
-109 44 -54 39 -142 127 -169 170 -22 33 -34 45 -34 32z"/>
<path d="M9294 2723 c4 -8 2 -13 -4 -13 -7 0 -10 -5 -8 -11 5 -14 -38 -61 -72
-79 -48 -26 -86 -29 -101 -9 -8 11 -20 17 -30 14 -12 -4 -19 2 -24 22 -5 21
-8 24 -16 12 -10 -15 -12 -13 -39 31 -6 11 -12 12 -20 4 -14 -14 10 -71 45
-107 60 -59 143 -45 235 39 64 60 70 73 43 95 -11 10 -14 10 -9 2z"/>
<path d="M1598 2673 c-27 -15 -48 -33 -48 -39 0 -24 55 -22 117 3 62 25 66 25
144 12 79 -13 112 -8 110 16 -2 16 -47 24 -166 30 -107 6 -111 5 -157 -22z"/>
<path d="M9806 2608 c-4 -19 -26 -55 -54 -85 -26 -28 -67 -74 -92 -102 -25
-28 -51 -51 -57 -51 -7 0 -13 -6 -13 -14 0 -21 -21 -31 -30 -16 -6 10 -16 8
-44 -10 -21 -12 -35 -27 -34 -32 2 -6 -8 -23 -22 -37 -14 -15 -31 -36 -37 -46
-7 -11 -24 -36 -37 -55 -54 -79 -156 -251 -156 -265 0 -23 36 -18 79 11 22 14
54 27 73 28 73 6 249 79 285 119 9 9 22 17 30 17 7 0 13 5 13 11 0 5 4 8 9 5
5 -3 20 3 32 14 l24 20 -28 -10 c-36 -13 -47 -13 -47 0 0 6 8 10 18 10 10 0
22 3 26 7 3 4 14 8 22 9 9 1 23 5 32 9 14 5 14 7 2 16 -12 8 -10 9 7 4 12 -3
24 -1 28 5 4 6 -7 10 -27 11 -27 0 -29 2 -13 8 11 5 26 6 33 4 7 -3 12 3 12
16 0 12 -6 21 -15 21 -8 0 -15 -4 -15 -10 0 -5 -9 -10 -19 -10 -30 0 -52 -11
-44 -23 4 -6 0 -8 -11 -4 -9 4 -14 3 -11 -2 3 -5 1 -12 -4 -15 -5 -4 -12 3
-16 14 -3 11 -13 20 -21 20 -11 0 -13 -6 -9 -19 7 -23 -10 -37 -28 -23 -7 5
-25 12 -40 16 -22 5 -28 4 -24 -6 2 -7 11 -12 21 -10 19 3 22 -14 4 -20 -22
-8 -39 19 -32 49 8 30 14 39 57 85 15 17 26 37 23 44 -3 7 13 28 36 46 65 53
93 86 127 152 24 48 30 69 25 94 -8 41 -30 41 -38 0z m-249 -450 c-2 -13 -4
-5 -4 17 -1 22 1 32 4 23 2 -10 2 -28 0 -40z m218 2 c3 -5 1 -10 -4 -10 -6 0
-11 5 -11 10 0 6 2 10 4 10 3 0 8 -4 11 -10z m-215 -44 c0 -3 -4 -8 -10 -11
-5 -3 -10 -1 -10 4 0 6 5 11 10 11 6 0 10 -2 10 -4z"/>
<path d="M7870 2570 c0 -5 5 -10 10 -10 6 0 10 5 10 10 0 6 -4 10 -10 10 -5 0
-10 -4 -10 -10z"/>
<path d="M3820 2472 c24 -16 117 -25 125 -13 4 7 -10 11 -42 11 -26 0 -59 3
-73 6 -18 4 -21 3 -10 -4z"/>
<path d="M3720 2440 c0 -5 7 -10 15 -10 8 0 15 5 15 10 0 6 -7 10 -15 10 -8 0
-15 -4 -15 -10z"/>
<path d="M9515 2360 c-3 -5 1 -10 9 -10 9 0 16 5 16 10 0 6 -4 10 -9 10 -6 0
-13 -4 -16 -10z"/>
<path d="M9665 2330 c-3 -5 -1 -10 4 -10 6 0 11 5 11 10 0 6 -2 10 -4 10 -3 0
-8 -4 -11 -10z"/>
<path d="M9625 2190 c3 -5 11 -10 16 -10 6 0 7 5 4 10 -3 6 -11 10 -16 10 -6
0 -7 -4 -4 -10z"/>
<path d="M3530 2151 c0 -6 5 -13 10 -16 6 -3 10 1 10 9 0 9 -4 16 -10 16 -5 0
-10 -4 -10 -9z"/>
<path d="M2820 1876 c0 -9 5 -16 10 -16 6 0 10 4 10 9 0 6 -4 13 -10 16 -5 3
-10 -1 -10 -9z"/>
<path d="M7620 1650 c0 -5 5 -10 10 -10 6 0 10 5 10 10 0 6 -4 10 -10 10 -5 0
-10 -4 -10 -10z"/>
<path d="M3090 1536 c0 -9 -5 -16 -10 -16 -14 0 -31 -46 -24 -65 9 -22 23 -18
19 5 -2 11 1 20 7 20 5 0 19 11 30 25 11 14 24 22 30 19 7 -4 8 -2 4 5 -4 6
-12 9 -17 5 -5 -3 -16 0 -24 6 -12 10 -15 9 -15 -4z"/>
<path d="M2872 1330 c-15 -24 -15 -30 -2 -30 6 0 10 7 10 15 0 8 9 15 20 15
11 0 20 5 20 10 0 18 -35 11 -48 -10z"/>
<path d="M3260 1235 c0 -8 5 -15 10 -15 6 0 10 7 10 15 0 8 -4 15 -10 15 -5 0
-10 -7 -10 -15z"/>
<path d="M7514 1151 c0 -21 7 -36 16 -38 10 -3 11 -2 3 4 -6 4 -13 22 -16 38
-4 27 -5 27 -3 -4z"/>
<path d="M7530 1140 c0 -5 5 -10 10 -10 6 0 10 5 10 10 0 6 -4 10 -10 10 -5 0
-10 -4 -10 -10z"/>
<path d="M9035 760 c-3 -5 -1 -10 4 -10 6 0 11 5 11 10 0 6 -2 10 -4 10 -3 0
-8 -4 -11 -10z"/>
<path d="M8823 676 c-13 -6 -23 -14 -23 -18 0 -15 35 -8 60 12 23 18 23 19 5
19 -11 -1 -30 -6 -42 -13z"/>
<path d="M8632 631 c-52 -9 -90 -19 -86 -23 4 -5 0 -8 -9 -8 -9 0 -17 5 -17
10 0 6 -9 10 -20 10 -11 0 -20 -5 -20 -11 0 -8 -18 -10 -61 -6 -39 5 -58 3
-54 -3 3 -6 10 -10 15 -10 5 0 21 -5 37 -11 20 -7 24 -12 14 -18 -28 -17 9
-22 54 -6 57 19 92 19 128 1 16 -9 27 -11 27 -5 0 7 17 9 43 5 23 -3 34 -3 25
0 -22 7 -24 34 -3 34 15 0 55 38 55 52 0 10 -15 9 -128 -11z"/>
</g>
</svg>
